{
    "asset" : {
        "generator" : "Khronos glTF Blender I/O v1.5.17",
        "version" : "2.0"
    },
    "scene" : 0,
    "scenes" : [
        {
            "name" : "Scene",
            "nodes" : [
                6
            ]
        }
    ],
    "nodes" : [
        {
            "mesh" : 0,
            "name" : "Capsule",
            "scale" : [
                5,
                5.000000953674316,
                5
            ],
            "translation" : [
                14.5,
                -3.2699999809265137,
                -2.5021743774414062
            ]
        },
        {
            "mesh" : 1,
            "name" : "cone",
            "rotation" : [
                0.7071068286895752,
                0,
                0,
                0.7071067094802856
            ],
            "translation" : [
                -5.400000095367432,
                5.929999828338623,
                -3.0984816551208496
            ]
        },
        {
            "mesh" : 2,
            "name" : "cube",
            "scale" : [
                3,
                3,
                3
            ],
            "translation" : [
                -12.170000076293945,
                -3.2699999809265137,
                -3.0299997329711914
            ]
        },
        {
            "mesh" : 3,
            "name" : "H",
            "rotation" : [
                0.7071068286895752,
                0,
                0,
                0.7071067094802856
            ],
            "scale" : [
                11,
                13,
                27.999998092651367
            ],
            "translation" : [
                -0.29572248458862305,
                -10.199999809265137,
                -4.993000030517578
            ]
        },
        {
            "mesh" : 4,
            "name" : "Plane",
            "rotation" : [
                0.7071068286895752,
                0,
                0,
                0.7071067094802856
            ],
            "scale" : [
                8,
                1,
                6
            ]
        },
        {
            "mesh" : 5,
            "name" : "Sphere",
            "rotation" : [
                0.7071068286895752,
                0,
                0,
                0.7071067094802856
            ],
            "scale" : [
                6,
                6.000000953674316,
                6.000000953674316
            ],
            "translation" : [
                5.400000095367432,
                5.9300007820129395,
                -2.961709976196289
            ]
        },
        {
            "children" : [
                0,
                1,
                2,
                3,
                4,
                5
            ],
            "name" : "Yup2Zup",
            "rotation" : [
                0.7071068286895752,
                0,
                0,
                0.7071068286895752
            ]
        }
    ],
    "animations" : [
        {
            "channels" : [
                {
                    "sampler" : 0,
                    "target" : {
                        "node" : 3,
                        "path" : "rotation"
                    }
                }
            ],
            "name" : "HAction",
            "samplers" : [
                {
                    "input" : 26,
                    "interpolation" : "LINEAR",
                    "output" : 27
                }
            ]
        }
    ],
    "materials" : [
        {
            "doubleSided" : true,
            "name" : "Material.010",
            "pbrMetallicRoughness" : {
                "baseColorFactor" : [
                    0.6881125569343567,
                    0.6550102829933167,
                    0.027423659339547157,
                    1
                ],
                "roughnessFactor" : 0.4000000059604645
            }
        },
        {
            "doubleSided" : true,
            "name" : "Material.007",
            "pbrMetallicRoughness" : {
                "baseColorFactor" : [
                    0.42857351899147034,
                    0.8280057311058044,
                    1,
                    1
                ],
                "roughnessFactor" : 0.4000000059604645
            }
        },
        {
            "doubleSided" : true,
            "name" : "\u6750\u8d28",
            "pbrMetallicRoughness" : {
                "baseColorFactor" : [
                    0.7669565677642822,
                    0.15105807781219482,
                    0.0435812808573246,
                    1
                ],
                "roughnessFactor" : 0.20000000298023224
            }
        },
        {
            "doubleSided" : true,
            "name" : "Material.005",
            "pbrMetallicRoughness" : {
                "baseColorFactor" : [
                    0.8000000715255737,
                    0.00966688059270382,
                    0.02037546969950199,
                    1
                ],
                "metallicFactor" : 0.8460000157356262,
                "roughnessFactor" : 0.15600000321865082
            }
        },
        {
            "name" : "M_floor.001",
            "pbrMetallicRoughness" : {
                "baseColorFactor" : [
                    0.378483384847641,
                    0.378483384847641,
                    0.378483384847641,
                    1
                ],
                "roughnessFactor" : 0.6409090757369995
            }
        },
        {
            "doubleSided" : true,
            "name" : "Material.009",
            "pbrMetallicRoughness" : {
                "baseColorFactor" : [
                    0.013126600533723831,
                    0.19271807372570038,
                    0.013576683588325977,
                    1
                ],
                "roughnessFactor" : 0.4000000059604645
            }
        }
    ],
    "meshes" : [
        {
            "name" : "Capsule.001",
            "primitives" : [
                {
                    "attributes" : {
                        "POSITION" : 0,
                        "NORMAL" : 1,
                        "TEXCOORD_0" : 2,
                        "TEXCOORD_1" : 3
                    },
                    "indices" : 4,
                    "material" : 0
                }
            ]
        },
        {
            "name" : "cone.001",
            "primitives" : [
                {
                    "attributes" : {
                        "POSITION" : 5,
                        "NORMAL" : 6,
                        "TEXCOORD_0" : 7
                    },
                    "indices" : 8,
                    "material" : 1
                }
            ]
        },
        {
            "name" : "cube.001",
            "primitives" : [
                {
                    "attributes" : {
                        "POSITION" : 9,
                        "NORMAL" : 10,
                        "TEXCOORD_0" : 11
                    },
                    "indices" : 12,
                    "material" : 2
                }
            ]
        },
        {
            "name" : "H",
            "primitives" : [
                {
                    "attributes" : {
                        "POSITION" : 13,
                        "NORMAL" : 14,
                        "TEXCOORD_0" : 15
                    },
                    "indices" : 16,
                    "material" : 3
                }
            ]
        },
        {
            "name" : "Plane.001",
            "primitives" : [
                {
                    "attributes" : {
                        "POSITION" : 17,
                        "NORMAL" : 18,
                        "TEXCOORD_0" : 19
                    },
                    "indices" : 20,
                    "material" : 4
                }
            ]
        },
        {
            "name" : "Sphere.001",
            "primitives" : [
                {
                    "attributes" : {
                        "POSITION" : 21,
                        "NORMAL" : 22,
                        "TEXCOORD_0" : 23,
                        "TEXCOORD_1" : 24
                    },
                    "indices" : 25,
                    "material" : 5
                }
            ]
        }
    ],
    "accessors" : [
        {
            "bufferView" : 0,
            "componentType" : 5126,
            "count" : 550,
            "max" : [
                0.5,
                1,
                0.5
            ],
            "min" : [
                -0.5,
                -1,
                -0.5
            ],
            "type" : "VEC3"
        },
        {
            "bufferView" : 1,
            "componentType" : 5126,
            "count" : 550,
            "type" : "VEC3"
        },
        {
            "bufferView" : 2,
            "componentType" : 5126,
            "count" : 550,
            "type" : "VEC2"
        },
        {
            "bufferView" : 3,
            "componentType" : 5126,
            "count" : 550,
            "type" : "VEC2"
        },
        {
            "bufferView" : 4,
            "componentType" : 5123,
            "count" : 2496,
            "type" : "SCALAR"
        },
        {
            "bufferView" : 5,
            "componentType" : 5126,
            "count" : 760,
            "max" : [
                3,
                3,
                3
            ],
            "min" : [
                -3,
                -3,
                -3
            ],
            "type" : "VEC3"
        },
        {
            "bufferView" : 6,
            "componentType" : 5126,
            "count" : 760,
            "type" : "VEC3"
        },
        {
            "bufferView" : 7,
            "componentType" : 5126,
            "count" : 760,
            "type" : "VEC2"
        },
        {
            "bufferView" : 8,
            "componentType" : 5123,
            "count" : 2160,
            "type" : "SCALAR"
        },
        {
            "bufferView" : 9,
            "componentType" : 5126,
            "count" : 1320,
            "max" : [
                1,
                1,
                1
            ],
            "min" : [
                -1,
                -1,
                -1
            ],
            "type" : "VEC3"
        },
        {
            "bufferView" : 10,
            "componentType" : 5126,
            "count" : 1320,
            "type" : "VEC3"
        },
        {
            "bufferView" : 11,
            "componentType" : 5126,
            "count" : 1320,
            "type" : "VEC2"
        },
        {
            "bufferView" : 12,
            "componentType" : 5123,
            "count" : 1764,
            "type" : "SCALAR"
        },
        {
            "bufferView" : 13,
            "componentType" : 5126,
            "count" : 302,
            "max" : [
                0.32899993658065796,
                0.38099998235702515,
                0.019999999552965164
            ],
            "min" : [
                -0.3290000557899475,
                -0.38099998235702515,
                -0.019999999552965164
            ],
            "type" : "VEC3"
        },
        {
            "bufferView" : 14,
            "componentType" : 5126,
            "count" : 302,
            "type" : "VEC3"
        },
        {
            "bufferView" : 15,
            "componentType" : 5126,
            "count" : 302,
            "type" : "VEC2"
        },
        {
            "bufferView" : 16,
            "componentType" : 5123,
            "count" : 888,
            "type" : "SCALAR"
        },
        {
            "bufferView" : 17,
            "componentType" : 5126,
            "count" : 557,
            "max" : [
                5,
                1.1102230246251565e-16,
                5
            ],
            "min" : [
                -5,
                -1.1102230246251565e-16,
                -5
            ],
            "type" : "VEC3"
        },
        {
            "bufferView" : 18,
            "componentType" : 5126,
            "count" : 557,
            "type" : "VEC3"
        },
        {
            "bufferView" : 19,
            "componentType" : 5126,
            "count" : 557,
            "type" : "VEC2"
        },
        {
            "bufferView" : 20,
            "componentType" : 5123,
            "count" : 600,
            "type" : "SCALAR"
        },
        {
            "bufferView" : 21,
            "componentType" : 5126,
            "count" : 519,
            "max" : [
                0.5,
                0.5,
                0.5
            ],
            "min" : [
                -0.5,
                -0.5,
                -0.5
            ],
            "type" : "VEC3"
        },
        {
            "bufferView" : 22,
            "componentType" : 5126,
            "count" : 519,
            "type" : "VEC3"
        },
        {
            "bufferView" : 23,
            "componentType" : 5126,
            "count" : 519,
            "type" : "VEC2"
        },
        {
            "bufferView" : 24,
            "componentType" : 5126,
            "count" : 519,
            "type" : "VEC2"
        },
        {
            "bufferView" : 25,
            "componentType" : 5123,
            "count" : 2304,
            "type" : "SCALAR"
        },
        {
            "bufferView" : 26,
            "componentType" : 5126,
            "count" : 180,
            "max" : [
                7.5
            ],
            "min" : [
                0.041666666666666664
            ],
            "type" : "SCALAR"
        },
        {
            "bufferView" : 27,
            "componentType" : 5126,
            "count" : 180,
            "type" : "VEC4"
        }
    ],
    "bufferViews" : [
        {
            "buffer" : 0,
            "byteLength" : 6600,
            "byteOffset" : 0
        },
        {
            "buffer" : 0,
            "byteLength" : 6600,
            "byteOffset" : 6600
        },
        {
            "buffer" : 0,
            "byteLength" : 4400,
            "byteOffset" : 13200
        },
        {
            "buffer" : 0,
            "byteLength" : 4400,
            "byteOffset" : 17600
        },
        {
            "buffer" : 0,
            "byteLength" : 4992,
            "byteOffset" : 22000
        },
        {
            "buffer" : 0,
            "byteLength" : 9120,
            "byteOffset" : 26992
        },
        {
            "buffer" : 0,
            "byteLength" : 9120,
            "byteOffset" : 36112
        },
        {
            "buffer" : 0,
            "byteLength" : 6080,
            "byteOffset" : 45232
        },
        {
            "buffer" : 0,
            "byteLength" : 4320,
            "byteOffset" : 51312
        },
        {
            "buffer" : 0,
            "byteLength" : 15840,
            "byteOffset" : 55632
        },
        {
            "buffer" : 0,
            "byteLength" : 15840,
            "byteOffset" : 71472
        },
        {
            "buffer" : 0,
            "byteLength" : 10560,
            "byteOffset" : 87312
        },
        {
            "buffer" : 0,
            "byteLength" : 3528,
            "byteOffset" : 97872
        },
        {
            "buffer" : 0,
            "byteLength" : 3624,
            "byteOffset" : 101400
        },
        {
            "buffer" : 0,
            "byteLength" : 3624,
            "byteOffset" : 105024
        },
        {
            "buffer" : 0,
            "byteLength" : 2416,
            "byteOffset" : 108648
        },
        {
            "buffer" : 0,
            "byteLength" : 1776,
            "byteOffset" : 111064
        },
        {
            "buffer" : 0,
            "byteLength" : 6684,
            "byteOffset" : 112840
        },
        {
            "buffer" : 0,
            "byteLength" : 6684,
            "byteOffset" : 119524
        },
        {
            "buffer" : 0,
            "byteLength" : 4456,
            "byteOffset" : 126208
        },
        {
            "buffer" : 0,
            "byteLength" : 1200,
            "byteOffset" : 130664
        },
        {
            "buffer" : 0,
            "byteLength" : 6228,
            "byteOffset" : 131864
        },
        {
            "buffer" : 0,
            "byteLength" : 6228,
            "byteOffset" : 138092
        },
        {
            "buffer" : 0,
            "byteLength" : 4152,
            "byteOffset" : 144320
        },
        {
            "buffer" : 0,
            "byteLength" : 4152,
            "byteOffset" : 148472
        },
        {
            "buffer" : 0,
            "byteLength" : 4608,
            "byteOffset" : 152624
        },
        {
            "buffer" : 0,
            "byteLength" : 720,
            "byteOffset" : 157232
        },
        {
            "buffer" : 0,
            "byteLength" : 2880,
            "byteOffset" : 157952
        }
    ],
    "buffers" : [
        {
            "byteLength" : 160832,
            "uri" : "data:application/octet-stream;base64,"
        }
    ]
}
