{
    "asset" : {
        "generator" : "Khronos glTF Blender I/O v1.2.75",
        "version" : "2.0"
    },
    "scene" : 0,
    "scenes" : [
        {
            "name" : "Scene",
            "nodes" : [
                0,
                1,
                2,
                3,
                4,
                5
            ]
        }
    ],
    "nodes" : [
        {
            "mesh" : 0,
            "name" : "cone",
            "rotation" : [
                0.7071068286895752,
                0,
                0,
                0.7071067094802856
            ],
            "translation" : [
                -5.400000095367432,
                3.0984816551208496,
                5.929999828338623
            ]
        },
        {
            "mesh" : 1,
            "name" : "Sphere",
            "rotation" : [
                0.7071068286895752,
                0,
                0,
                0.7071067094802856
            ],
            "scale" : [
                6,
                6.000000953674316,
                6.000000953674316
            ],
            "translation" : [
                5.400000095367432,
                2.961709976196289,
                5.9300007820129395
            ]
        },
        {
            "mesh" : 2,
            "name" : "Capsule",
            "scale" : [
                5,
                5,
                5.000000953674316
            ],
            "translation" : [
                14.5,
                2.5021743774414062,
                -3.2699999809265137
            ]
        },
        {
            "mesh" : 3,
            "name" : "Cube",
            "scale" : [
                3,
                3,
                3
            ],
            "translation" : [
                -12.170000076293945,
                3.0299997329711914,
                -3.2699999809265137
            ]
        },
        {
            "mesh" : 4,
            "name" : "Huawei",
            "rotation" : [
                0.7071068286895752,
                0,
                0,
                0.7071067094802856
            ],
            "scale" : [
                11,
                28,
                13
            ],
            "translation" : [
                -0.29572248458862305,
                4.993000030517578,
                -10.199999809265137
            ]
        },
        {
            "mesh" : 5,
            "name" : "Plane",
            "rotation" : [
                0.7071068286895752,
                0,
                0,
                0.7071067094802856
            ],
            "scale" : [
                8,
                6,
                1
            ]
        }
    ],
    "animations" : [
        {
            "channels" : [
                {
                    "sampler" : 0,
                    "target" : {
                        "node" : 4,
                        "path" : "rotation"
                    }
                }
            ],
            "name" : "HAction",
            "samplers" : [
                {
                    "input" : 26,
                    "interpolation" : "LINEAR",
                    "output" : 27
                }
            ]
        }
    ],
    "materials" : [
        {
            "doubleSided" : true,
            "emissiveFactor" : [
                0,
                0,
                0
            ],
            "name" : "Material.007",
            "pbrMetallicRoughness" : {
                "baseColorFactor" : [
                    0.42857351899147034,
                    0.8280057311058044,
                    1,
                    1
                ],
                "metallicFactor" : 1,
                "roughnessFactor" : 0.4000000059604645
            }
        },
        {
            "doubleSided" : true,
            "emissiveFactor" : [
                0,
                0,
                0
            ],
            "name" : "Material.009",
            "pbrMetallicRoughness" : {
                "baseColorFactor" : [
                    0.013126600533723831,
                    0.19271807372570038,
                    0.013576683588325977,
                    1
                ],
                "metallicFactor" : 1,
                "roughnessFactor" : 0.4000000059604645
            }
        },
        {
            "doubleSided" : true,
            "emissiveFactor" : [
                0,
                0,
                0
            ],
            "name" : "Material.010",
            "pbrMetallicRoughness" : {
                "baseColorFactor" : [
                    0.6881125569343567,
                    0.6550102829933167,
                    0.027423659339547157,
                    1
                ],
                "metallicFactor" : 1,
                "roughnessFactor" : 0.4000000059604645
            }
        },
        {
            "doubleSided" : true,
            "emissiveFactor" : [
                0,
                0,
                0
            ],
            "name" : "\u6750\u8d28",
            "pbrMetallicRoughness" : {
                "baseColorFactor" : [
                    0.7669565677642822,
                    0.15105807781219482,
                    0.0435812808573246,
                    1
                ],
                "metallicFactor" : 1,
                "roughnessFactor" : 0.20000000298023224
            }
        },
        {
            "doubleSided" : true,
            "emissiveFactor" : [
                0,
                0,
                0
            ],
            "name" : "Material.005",
            "pbrMetallicRoughness" : {
                "baseColorFactor" : [
                    0.8000000715255737,
                    0.00966688059270382,
                    0.02037546969950199,
                    1
                ],
                "metallicFactor" : 0.8460000157356262,
                "roughnessFactor" : 0.15600000321865082
            }
        },
        {
            "emissiveFactor" : [
                0,
                0,
                0
            ],
            "name" : "M_floor.001",
            "pbrMetallicRoughness" : {
                "baseColorFactor" : [
                    0.002484241034835577,
                    0.0007820130558684468,
                    0.01209124643355608,
                    1
                ],
                "metallicFactor" : 0.800000011920929,
                "roughnessFactor" : 0.699999988079071
            }
        }
    ],
    "meshes" : [
        {
            "name" : "cone.001",
            "primitives" : [
                {
                    "attributes" : {
                        "POSITION" : 0,
                        "NORMAL" : 1,
                        "TEXCOORD_0" : 2
                    },
                    "indices" : 3,
                    "material" : 0
                }
            ]
        },
        {
            "name" : "Sphere.001",
            "primitives" : [
                {
                    "attributes" : {
                        "POSITION" : 4,
                        "NORMAL" : 5,
                        "TEXCOORD_0" : 6,
                        "TEXCOORD_1" : 7
                    },
                    "indices" : 8,
                    "material" : 1
                }
            ]
        },
        {
            "name" : "Capsule.001",
            "primitives" : [
                {
                    "attributes" : {
                        "POSITION" : 9,
                        "NORMAL" : 10,
                        "TEXCOORD_0" : 11,
                        "TEXCOORD_1" : 12
                    },
                    "indices" : 13,
                    "material" : 2
                }
            ]
        },
        {
            "name" : "\u7acb\u65b9\u4f53.001",
            "primitives" : [
                {
                    "attributes" : {
                        "POSITION" : 14,
                        "NORMAL" : 15,
                        "TEXCOORD_0" : 16
                    },
                    "indices" : 17,
                    "material" : 3
                }
            ]
        },
        {
            "name" : "Huawei",
            "primitives" : [
                {
                    "attributes" : {
                        "POSITION" : 18,
                        "NORMAL" : 19,
                        "TEXCOORD_0" : 20
                    },
                    "indices" : 21,
                    "material" : 4
                }
            ]
        },
        {
            "name" : "Plane.001",
            "primitives" : [
                {
                    "attributes" : {
                        "POSITION" : 22,
                        "NORMAL" : 23,
                        "TEXCOORD_0" : 24
                    },
                    "indices" : 25,
                    "material" : 5
                }
            ]
        }
    ],
    "accessors" : [
        {
            "bufferView" : 0,
            "componentType" : 5126,
            "count" : 646,
            "max" : [
                3,
                3,
                3
            ],
            "min" : [
                -3,
                -3,
                -3
            ],
            "type" : "VEC3"
        },
        {
            "bufferView" : 1,
            "componentType" : 5126,
            "count" : 646,
            "type" : "VEC3"
        },
        {
            "bufferView" : 2,
            "componentType" : 5126,
            "count" : 646,
            "type" : "VEC2"
        },
        {
            "bufferView" : 3,
            "componentType" : 5123,
            "count" : 2160,
            "type" : "SCALAR"
        },
        {
            "bufferView" : 4,
            "componentType" : 5126,
            "count" : 519,
            "max" : [
                0.5,
                0.5,
                0.5
            ],
            "min" : [
                -0.5,
                -0.5,
                -0.5
            ],
            "type" : "VEC3"
        },
        {
            "bufferView" : 5,
            "componentType" : 5126,
            "count" : 519,
            "type" : "VEC3"
        },
        {
            "bufferView" : 6,
            "componentType" : 5126,
            "count" : 519,
            "type" : "VEC2"
        },
        {
            "bufferView" : 7,
            "componentType" : 5126,
            "count" : 519,
            "type" : "VEC2"
        },
        {
            "bufferView" : 8,
            "componentType" : 5123,
            "count" : 2304,
            "type" : "SCALAR"
        },
        {
            "bufferView" : 9,
            "componentType" : 5126,
            "count" : 550,
            "max" : [
                0.5,
                0.5,
                1
            ],
            "min" : [
                -0.5,
                -0.5,
                -1
            ],
            "type" : "VEC3"
        },
        {
            "bufferView" : 10,
            "componentType" : 5126,
            "count" : 550,
            "type" : "VEC3"
        },
        {
            "bufferView" : 11,
            "componentType" : 5126,
            "count" : 550,
            "type" : "VEC2"
        },
        {
            "bufferView" : 12,
            "componentType" : 5126,
            "count" : 550,
            "type" : "VEC2"
        },
        {
            "bufferView" : 13,
            "componentType" : 5123,
            "count" : 2496,
            "type" : "SCALAR"
        },
        {
            "bufferView" : 14,
            "componentType" : 5126,
            "count" : 1296,
            "max" : [
                1,
                1,
                1
            ],
            "min" : [
                -1,
                -1,
                -1
            ],
            "type" : "VEC3"
        },
        {
            "bufferView" : 15,
            "componentType" : 5126,
            "count" : 1296,
            "type" : "VEC3"
        },
        {
            "bufferView" : 16,
            "componentType" : 5126,
            "count" : 1296,
            "type" : "VEC2"
        },
        {
            "bufferView" : 17,
            "componentType" : 5123,
            "count" : 1764,
            "type" : "SCALAR"
        },
        {
            "bufferView" : 18,
            "componentType" : 5126,
            "count" : 68,
            "max" : [
                0.32899993658065796,
                0.019999999552965164,
                0.38099998235702515
            ],
            "min" : [
                -0.3290000557899475,
                -0.019999999552965164,
                -0.38099998235702515
            ],
            "type" : "VEC3"
        },
        {
            "bufferView" : 19,
            "componentType" : 5126,
            "count" : 68,
            "type" : "VEC3"
        },
        {
            "bufferView" : 20,
            "componentType" : 5126,
            "count" : 68,
            "type" : "VEC2"
        },
        {
            "bufferView" : 21,
            "componentType" : 5123,
            "count" : 132,
            "type" : "SCALAR"
        },
        {
            "bufferView" : 22,
            "componentType" : 5126,
            "count" : 459,
            "max" : [
                5,
                5,
                1.1102230246251565e-16
            ],
            "min" : [
                -5,
                -5,
                -1.1102230246251565e-16
            ],
            "type" : "VEC3"
        },
        {
            "bufferView" : 23,
            "componentType" : 5126,
            "count" : 459,
            "type" : "VEC3"
        },
        {
            "bufferView" : 24,
            "componentType" : 5126,
            "count" : 459,
            "type" : "VEC2"
        },
        {
            "bufferView" : 25,
            "componentType" : 5123,
            "count" : 600,
            "type" : "SCALAR"
        },
        {
            "bufferView" : 26,
            "componentType" : 5126,
            "count" : 180,
            "max" : [
                7.5
            ],
            "min" : [
                0.041666666666666664
            ],
            "type" : "SCALAR"
        },
        {
            "bufferView" : 27,
            "componentType" : 5126,
            "count" : 180,
            "type" : "VEC4"
        }
    ],
    "bufferViews" : [
        {
            "buffer" : 0,
            "byteLength" : 7752,
            "byteOffset" : 0
        },
        {
            "buffer" : 0,
            "byteLength" : 7752,
            "byteOffset" : 7752
        },
        {
            "buffer" : 0,
            "byteLength" : 5168,
            "byteOffset" : 15504
        },
        {
            "buffer" : 0,
            "byteLength" : 4320,
            "byteOffset" : 20672
        },
        {
            "buffer" : 0,
            "byteLength" : 6228,
            "byteOffset" : 24992
        },
        {
            "buffer" : 0,
            "byteLength" : 6228,
            "byteOffset" : 31220
        },
        {
            "buffer" : 0,
            "byteLength" : 4152,
            "byteOffset" : 37448
        },
        {
            "buffer" : 0,
            "byteLength" : 4152,
            "byteOffset" : 41600
        },
        {
            "buffer" : 0,
            "byteLength" : 4608,
            "byteOffset" : 45752
        },
        {
            "buffer" : 0,
            "byteLength" : 6600,
            "byteOffset" : 50360
        },
        {
            "buffer" : 0,
            "byteLength" : 6600,
            "byteOffset" : 56960
        },
        {
            "buffer" : 0,
            "byteLength" : 4400,
            "byteOffset" : 63560
        },
        {
            "buffer" : 0,
            "byteLength" : 4400,
            "byteOffset" : 67960
        },
        {
            "buffer" : 0,
            "byteLength" : 4992,
            "byteOffset" : 72360
        },
        {
            "buffer" : 0,
            "byteLength" : 15552,
            "byteOffset" : 77352
        },
        {
            "buffer" : 0,
            "byteLength" : 15552,
            "byteOffset" : 92904
        },
        {
            "buffer" : 0,
            "byteLength" : 10368,
            "byteOffset" : 108456
        },
        {
            "buffer" : 0,
            "byteLength" : 3528,
            "byteOffset" : 118824
        },
        {
            "buffer" : 0,
            "byteLength" : 816,
            "byteOffset" : 122352
        },
        {
            "buffer" : 0,
            "byteLength" : 816,
            "byteOffset" : 123168
        },
        {
            "buffer" : 0,
            "byteLength" : 544,
            "byteOffset" : 123984
        },
        {
            "buffer" : 0,
            "byteLength" : 264,
            "byteOffset" : 124528
        },
        {
            "buffer" : 0,
            "byteLength" : 5508,
            "byteOffset" : 124792
        },
        {
            "buffer" : 0,
            "byteLength" : 5508,
            "byteOffset" : 130300
        },
        {
            "buffer" : 0,
            "byteLength" : 3672,
            "byteOffset" : 135808
        },
        {
            "buffer" : 0,
            "byteLength" : 1200,
            "byteOffset" : 139480
        },
        {
            "buffer" : 0,
            "byteLength" : 720,
            "byteOffset" : 140680
        },
        {
            "buffer" : 0,
            "byteLength" : 2880,
            "byteOffset" : 141400
        }
    ],
    "buffers" : [
        {
            "byteLength" : 144280,
            "uri" : "data:application/octet-stream;base64,"
        }
    ]
}
